<?xml version="1.0" standalone="no"?>
<!DOCTYPE svg PUBLIC "-//W3C//DTD SVG 20010904//EN"
 "http://www.w3.org/TR/2001/REC-SVG-20010904/DTD/svg10.dtd">
<svg version="1.0" xmlns="http://www.w3.org/2000/svg"
 width="310.000000pt" height="310.000000pt" viewBox="0 0 310.000000 310.000000"
 preserveAspectRatio="xMidYMid meet">
<metadata>
Created by potrace 1.14, written by Peter Selinger 2001-2017
</metadata>
<g transform="translate(0.000000,310.000000) scale(0.100000,-0.100000)"
fill="#000000" stroke="none">
<path d="M1570 3001 c0 -5 -23 -8 -51 -5 -35 3 -48 1 -43 -7 5 -8 1 -8 -13 0
-11 6 -22 8 -24 6 -3 -2 -26 -5 -52 -6 -27 -2 -51 -7 -53 -11 -3 -5 -12 -4
-20 3 -8 6 -14 8 -14 3 0 -5 -19 -10 -42 -12 -23 -1 -46 -8 -51 -15 -7 -9 -10
-9 -14 1 -4 10 -8 10 -19 1 -7 -6 -21 -9 -29 -5 -9 3 -13 2 -10 -4 6 -10 -7
-14 -32 -11 -7 1 -13 -3 -13 -9 0 -6 -5 -8 -10 -5 -6 4 -17 1 -25 -5 -8 -6
-19 -9 -25 -5 -5 3 -10 1 -10 -5 0 -6 -4 -8 -10 -5 -5 3 -10 1 -10 -4 0 -6 -3
-10 -8 -10 -22 4 -42 -2 -37 -11 3 -6 -1 -7 -9 -4 -9 3 -16 1 -16 -6 0 -6 -4
-9 -9 -5 -5 3 -16 -2 -25 -10 -8 -9 -18 -14 -20 -13 -3 2 -14 -5 -25 -14 -11
-9 -22 -14 -25 -11 -3 4 -6 0 -6 -7 0 -7 -3 -11 -6 -7 -3 3 -14 -2 -25 -11
-11 -9 -21 -15 -22 -12 -1 3 -10 -2 -19 -10 -9 -8 -14 -18 -12 -22 3 -4 -6
-10 -20 -14 -13 -3 -27 -12 -30 -21 -3 -8 -10 -11 -16 -8 -5 3 -10 0 -10 -7 0
-7 -16 -24 -35 -37 -19 -13 -33 -27 -30 -31 2 -4 -12 -21 -31 -38 -20 -18 -33
-32 -28 -32 4 0 -3 -9 -16 -20 -13 -11 -20 -20 -17 -20 7 0 -13 -27 -41 -56
-7 -8 -10 -14 -7 -14 4 0 -5 -17 -21 -37 -15 -20 -21 -33 -13 -29 11 6 11 5
-1 -6 -8 -7 -16 -20 -18 -28 -2 -8 -8 -17 -13 -18 -5 -2 -7 -8 -3 -13 3 -5 0
-9 -5 -9 -6 0 -11 -9 -11 -20 0 -11 -4 -20 -9 -20 -5 0 -8 -11 -7 -25 2 -13
-2 -23 -8 -22 -6 1 -10 -8 -10 -20 1 -13 -3 -23 -9 -23 -6 0 -7 -3 -4 -7 4 -3
2 -12 -3 -18 -6 -7 -11 -24 -12 -39 -1 -14 -6 -26 -11 -26 -4 0 -6 -4 -3 -9 3
-4 -3 -19 -14 -31 -11 -13 -20 -20 -20 -17 0 3 -17 -10 -37 -28 -21 -19 -41
-35 -46 -35 -4 0 -12 -11 -17 -25 -5 -14 -16 -25 -24 -25 -10 0 -13 -6 -10
-15 4 -8 1 -15 -5 -15 -9 0 -42 -52 -41 -65 0 -3 -6 -13 -15 -21 -8 -9 -15
-24 -15 -35 0 -10 -5 -19 -11 -19 -6 0 -9 -7 -6 -15 4 -8 2 -17 -4 -20 -5 -4
-7 -10 -4 -15 3 -5 1 -11 -5 -15 -6 -4 -8 -11 -5 -16 4 -5 1 -9 -5 -9 -8 0 -7
-6 1 -21 7 -14 7 -19 1 -15 -15 9 -13 -174 2 -193 9 -12 8 -13 -4 -6 -12 7
-13 6 -3 -7 7 -8 10 -18 6 -21 -3 -4 -1 -7 5 -7 7 0 12 -11 12 -24 0 -14 5
-28 10 -31 6 -3 10 -13 10 -21 0 -14 9 -26 62 -85 34 -37 42 -73 21 -95 -9 -8
-10 -14 -3 -14 6 0 8 -5 3 -12 -4 -7 -8 -22 -8 -33 0 -11 -4 -26 -8 -32 -5 -8
-3 -13 4 -13 8 0 8 -4 2 -12 -6 -7 -9 -21 -8 -30 2 -10 -2 -18 -8 -18 -8 0 -8
-3 0 -11 11 -11 6 -56 -8 -65 -5 -3 -3 -14 4 -25 10 -16 9 -21 -3 -29 -8 -5
-10 -10 -5 -10 6 0 11 -35 11 -83 2 -124 8 -187 18 -187 5 0 3 -7 -4 -15 -10
-12 -10 -15 0 -15 8 0 10 -3 7 -6 -3 -4 -2 -15 4 -25 7 -14 6 -19 -3 -19 -8 0
-9 -3 -3 -8 6 -4 11 -14 11 -22 1 -8 5 -28 9 -45 4 -16 7 -38 7 -47 -1 -10 3
-18 7 -18 4 0 8 -6 8 -12 1 -21 11 -62 21 -89 6 -15 8 -30 5 -33 -4 -3 -1 -6
6 -6 7 0 9 -5 6 -10 -3 -6 1 -13 9 -16 9 -3 13 -10 10 -15 -3 -5 0 -9 6 -9 16
0 40 -26 32 -34 -3 -4 1 -4 11 0 9 3 23 1 31 -5 7 -6 16 -8 20 -4 4 4 11 1 16
-7 6 -9 10 -10 10 -3 0 11 42 9 63 -4 6 -3 7 -2 4 4 -6 9 65 11 98 3 6 -1 12
-1 15 0 14 6 88 5 108 -2 13 -4 21 -4 18 0 -8 13 68 9 76 -3 5 -7 8 -6 8 1 0
12 49 12 70 -1 8 -5 11 -4 7 1 -3 6 11 10 34 10 21 0 39 -4 39 -10 0 -7 3 -8
8 -1 10 14 112 15 112 1 0 -7 3 -7 8 -1 10 14 65 14 74 1 5 -8 8 -8 8 0 0 12
90 11 110 -1 8 -5 11 -4 7 2 -6 9 65 11 98 3 6 -1 12 -1 15 0 19 8 160 4 160
-5 0 -6 3 -7 8 0 10 14 65 14 74 1 5 -7 8 -7 8 2 0 10 5 10 21 1 12 -6 19 -7
16 -2 -8 13 66 11 75 -2 5 -7 8 -6 8 1 0 12 49 12 70 -1 8 -5 11 -4 7 2 -8 13
66 12 75 -2 5 -7 8 -7 8 1 0 12 130 12 150 -1 8 -5 11 -4 7 2 -6 9 65 11 98 3
6 -1 12 -1 15 0 14 6 168 5 188 -2 13 -4 21 -4 18 1 -5 7 70 8 99 1 6 -1 12
-1 15 0 14 6 168 5 188 -2 13 -4 21 -4 18 0 -6 10 64 10 80 0 6 -4 14 -4 18
-1 7 7 31 14 56 15 8 1 25 11 36 24 12 12 25 20 28 17 3 -4 6 1 6 10 0 10 5
17 10 17 6 0 10 9 10 19 0 11 4 23 10 26 5 3 10 11 10 16 0 6 -5 7 -11 3 -6
-3 -3 5 6 20 9 14 15 33 11 41 -3 9 -2 13 4 10 10 -6 14 7 11 32 -1 7 4 13 11
13 9 0 9 3 -2 10 -8 5 -10 10 -3 10 6 0 10 11 8 25 -1 14 1 25 4 25 4 0 8 14
9 32 2 17 7 37 13 44 7 8 7 14 -1 19 -8 5 -8 11 1 21 9 11 9 17 0 28 -7 8 -8
15 -2 18 15 5 23 138 8 138 -7 0 -8 3 -2 8 6 4 10 16 9 27 0 11 5 26 10 34 8
10 8 13 0 9 -7 -5 -10 20 -10 74 1 44 -3 82 -7 85 -5 3 -6 12 -3 20 3 8 1 24
-5 35 -6 11 -7 18 -2 15 5 -3 9 3 9 13 0 10 -3 17 -7 14 -4 -2 -7 6 -7 19 -2
31 -6 50 -16 66 -7 11 -6 12 5 6 12 -7 12 -6 1 7 -11 14 -10 20 6 36 11 11 18
23 15 26 -4 3 1 6 10 6 10 0 17 7 17 15 0 8 5 15 10 15 6 0 10 7 10 15 0 9 7
18 15 21 8 4 12 10 9 15 -3 6 -2 15 3 22 5 7 15 25 21 40 10 23 10 27 0 21 -7
-4 -5 1 4 12 14 17 17 37 14 124 -3 88 -9 145 -16 145 -1 0 -4 11 -6 25 -2 13
-8 27 -13 30 -4 3 -7 13 -5 23 1 9 -2 17 -8 17 -6 0 -7 7 -4 15 3 9 -1 18 -9
21 -8 4 -12 10 -9 15 3 5 0 9 -5 9 -6 0 -11 7 -11 15 0 8 -4 15 -10 15 -5 0
-10 7 -10 15 0 8 -5 15 -11 15 -5 0 -8 4 -5 8 3 5 -6 15 -19 22 -14 7 -25 18
-25 25 0 6 -14 22 -30 35 -17 14 -41 35 -54 47 -13 12 -26 20 -28 18 -2 -2 -8
7 -15 21 -8 18 -8 22 0 17 7 -4 6 0 -1 10 -8 9 -11 21 -7 27 3 5 1 10 -4 10
-6 0 -10 3 -10 8 1 4 1 9 -1 12 -1 3 -4 16 -6 30 -2 13 -10 28 -17 32 -6 4 -8
8 -4 8 4 0 2 10 -5 23 -7 12 -11 28 -9 36 1 7 -2 10 -8 6 -7 -3 -8 0 -5 9 3 9
2 16 -4 16 -8 0 -21 26 -26 53 0 4 -8 12 -16 17 -8 5 -11 10 -6 10 5 0 3 6 -3
13 -6 8 -8 17 -4 20 3 4 1 7 -5 7 -6 0 -19 15 -28 33 -17 33 -23 41 -68 90
-14 15 -26 32 -26 36 0 5 -11 16 -24 27 -14 10 -23 21 -20 25 2 4 -5 10 -16
14 -11 4 -18 11 -15 16 4 5 2 9 -4 9 -6 0 -28 16 -50 36 -21 20 -42 36 -45 35
-4 -1 -19 10 -34 24 -15 14 -43 33 -62 42 -19 10 -37 20 -40 23 -8 10 -84 44
-92 42 -5 -1 -8 2 -8 8 0 5 -5 10 -11 10 -5 0 -7 -6 -3 -12 4 -7 -2 -5 -13 5
-11 9 -25 17 -31 17 -7 0 -12 4 -12 8 0 4 -8 8 -17 9 -43 3 -63 8 -63 15 0 4
-7 4 -17 1 -10 -4 -14 -2 -10 4 4 6 -3 9 -18 7 -14 -1 -25 1 -25 6 0 4 -19 8
-42 8 -22 1 -45 7 -49 14 -7 11 -9 10 -9 -1 0 -11 -3 -11 -17 0 -14 12 -16 12
-8 0 6 -11 5 -12 -6 -5 -13 8 -44 13 -116 16 -18 1 -33 6 -33 12 0 6 -5 4 -10
-4 -8 -12 -13 -13 -30 -2 -11 7 -20 8 -20 3z m149 -330 c19 -10 22 -10 16 -1
-6 10 -1 11 21 6 44 -12 66 -17 99 -23 17 -3 38 -9 48 -14 9 -6 21 -8 26 -5 4
3 17 -1 27 -9 10 -8 27 -15 37 -15 9 0 17 -5 17 -11 0 -5 5 -7 10 -4 6 3 10 2
10 -4 0 -5 9 -8 20 -6 11 2 18 0 15 -6 -4 -5 1 -9 9 -9 9 0 16 -5 16 -11 0 -5
5 -7 10 -4 6 3 10 1 10 -5 0 -6 5 -8 10 -5 6 3 10 2 10 -3 0 -5 13 -15 30 -22
16 -7 27 -16 24 -21 -3 -5 1 -9 10 -9 8 0 16 -4 18 -9 2 -5 22 -24 45 -44 23
-19 39 -37 36 -41 -4 -3 1 -6 11 -6 9 0 15 -4 12 -8 -3 -5 4 -15 15 -22 10 -8
19 -20 19 -27 0 -7 5 -13 10 -13 6 0 10 -7 10 -15 0 -8 5 -15 10 -15 6 0 10
-7 10 -15 0 -8 5 -15 10 -15 6 0 10 -9 10 -21 0 -13 4 -18 12 -13 8 5 9 2 5
-9 -4 -10 0 -20 11 -26 9 -6 14 -11 9 -11 -4 0 -1 -13 8 -30 29 -57 6 -91 -35
-51 -9 9 -29 25 -44 36 -16 11 -36 28 -45 38 -8 9 -21 17 -28 17 -7 0 -13 5
-13 10 0 6 -9 10 -21 10 -11 0 -18 4 -15 8 3 5 -10 15 -29 22 -19 8 -35 17
-35 22 0 4 -7 8 -15 8 -8 0 -15 4 -15 10 0 5 -7 7 -15 4 -8 -4 -15 -1 -15 6 0
6 -4 8 -10 5 -5 -3 -10 -1 -10 4 0 6 -9 11 -21 11 -13 0 -18 4 -13 12 4 7 3 8
-4 4 -6 -4 -25 0 -42 9 -16 8 -32 15 -35 15 -9 1 -40 12 -58 21 -10 5 -23 7
-29 3 -5 -4 -13 -2 -17 4 -3 6 -24 13 -46 15 -22 2 -47 7 -56 11 -9 4 -35 8
-58 9 -22 1 -41 6 -41 10 0 4 -9 3 -19 -3 -13 -6 -22 -7 -26 0 -3 5 -13 6 -22
3 -12 -5 -14 -3 -8 7 6 9 4 11 -5 5 -8 -5 -26 -9 -40 -9 -14 0 -32 4 -40 9 -7
5 -11 4 -7 -1 3 -5 -12 -10 -34 -10 -26 -1 -36 2 -32 10 4 6 -3 2 -15 -8 -15
-13 -22 -15 -22 -6 0 9 -4 9 -12 2 -7 -5 -24 -8 -37 -6 -13 3 -29 0 -35 -5 -6
-4 -19 -7 -28 -6 -10 2 -18 0 -18 -5 0 -5 -8 -7 -17 -5 -10 1 -24 -2 -30 -8
-7 -5 -13 -6 -13 -2 0 4 -8 1 -17 -6 -15 -12 -16 -12 -8 1 7 12 6 13 -7 3 -8
-7 -18 -10 -21 -6 -4 3 -7 0 -7 -7 0 -7 -3 -10 -6 -7 -4 3 -16 1 -28 -5 -11
-7 -25 -11 -30 -10 -4 2 -14 -3 -22 -9 -8 -6 -14 -8 -14 -5 0 4 -10 1 -22 -6
-13 -7 -25 -13 -28 -14 -34 -10 -88 -39 -84 -45 3 -5 -2 -6 -10 -3 -9 3 -16 2
-16 -4 0 -5 -11 -13 -25 -16 -14 -4 -25 -11 -25 -17 0 -6 -4 -7 -10 -4 -5 3
-10 2 -10 -3 0 -4 -16 -16 -36 -25 -21 -11 -32 -22 -28 -29 4 -7 3 -8 -4 -4
-7 4 -12 2 -12 -3 0 -6 -7 -11 -15 -11 -8 0 -15 -4 -15 -10 0 -5 -7 -10 -15
-10 -8 0 -15 -7 -15 -16 0 -8 -5 -12 -10 -9 -6 3 -13 -1 -16 -10 -5 -13 -9
-13 -22 -3 -13 11 -14 11 -7 -1 5 -10 4 -12 -3 -7 -15 9 -15 39 0 54 7 7 8 12
4 12 -5 0 -3 7 4 15 7 8 9 15 6 15 -4 0 2 10 13 22 11 11 18 25 15 30 -3 4 -1
8 5 8 6 0 7 7 4 17 -4 10 -2 14 5 9 6 -4 16 8 23 29 7 19 15 32 18 30 6 -6 37
38 33 48 -1 4 4 7 12 7 8 0 18 9 21 20 4 11 10 18 15 15 4 -3 10 5 13 17 4 12
9 19 12 16 4 -3 20 7 36 23 16 16 34 29 40 29 6 0 7 5 4 10 -3 6 3 10 14 10
11 0 27 10 35 22 9 12 16 19 16 14 0 -5 7 -3 15 4 8 7 15 9 15 6 0 -4 7 0 16
8 8 9 22 16 30 16 8 0 14 4 14 10 0 5 7 7 15 4 8 -4 15 -1 15 5 0 6 3 10 8 9
4 -1 34 7 67 17 33 10 66 18 73 17 6 -2 12 1 12 7 0 5 11 8 25 6 14 -1 25 1
25 4 0 4 20 6 45 5 25 -1 43 1 40 5 -8 13 289 5 314 -8z"/>
</g>
</svg>
